<svg width="109" height="32" viewBox="0 0 109 32" fill="none" xmlns="http://www.w3.org/2000/svg">
<path d="M8.65909 24.9432C6.86364 24.9432 5.31818 24.5796 4.02273 23.8523C2.73485 23.1174 1.74243 22.0796 1.04546 20.7387C0.348486 19.3902 7.15256e-07 17.7955 7.15256e-07 15.9546C7.15256e-07 14.1591 0.348486 12.5834 1.04546 11.2273C1.74243 9.87123 2.72349 8.81442 3.98864 8.05684C5.26136 7.29926 6.75379 6.92048 8.46591 6.92048C9.61743 6.92048 10.6894 7.10608 11.6818 7.47729C12.6818 7.84093 13.553 8.39017 14.2955 9.12502C15.0455 9.85987 15.6288 10.7841 16.0455 11.8977C16.4621 13.0038 16.6705 14.2993 16.6705 15.7841V17.1137H1.93182V14.1137H12.1136C12.1136 13.4167 11.9621 12.7993 11.6591 12.2614C11.3561 11.7235 10.9356 11.3031 10.3977 11C9.86743 10.6894 9.25 10.5341 8.54546 10.5341C7.81061 10.5341 7.15909 10.7046 6.59091 11.0455C6.0303 11.3788 5.59091 11.8296 5.27273 12.3977C4.95455 12.9584 4.79167 13.5834 4.78409 14.2727V17.125C4.78409 17.9887 4.94318 18.7349 5.26136 19.3637C5.58712 19.9924 6.04546 20.4773 6.63636 20.8182C7.22727 21.1591 7.92803 21.3296 8.73864 21.3296C9.27652 21.3296 9.76894 21.2538 10.2159 21.1023C10.6629 20.9508 11.0455 20.7235 11.3636 20.4205C11.6818 20.1174 11.9242 19.7462 12.0909 19.3068L16.5682 19.6023C16.3409 20.6781 15.875 21.6174 15.1705 22.4205C14.4735 23.2159 13.572 23.8371 12.4659 24.2841C11.3674 24.7235 10.0985 24.9432 8.65909 24.9432Z" fill="#0D0D0D"/>
<path d="M38.7464 1.32957V24.6023H34.4964L24.3714 9.95457H24.2009V24.6023H19.2805V1.32957H23.5986L33.6441 15.9659H33.8486V1.32957H38.7464ZM49.9672 24.9432C48.202 24.9432 46.6755 24.5682 45.3876 23.8182C44.1073 23.0606 43.1187 22.0076 42.4217 20.6591C41.7247 19.3031 41.3763 17.7311 41.3763 15.9432C41.3763 14.1402 41.7247 12.5644 42.4217 11.2159C43.1187 9.85987 44.1073 8.80684 45.3876 8.05684C46.6755 7.29926 48.202 6.92048 49.9672 6.92048C51.7323 6.92048 53.255 7.29926 54.5353 8.05684C55.8232 8.80684 56.8156 9.85987 57.5126 11.2159C58.2096 12.5644 58.5581 14.1402 58.5581 15.9432C58.5581 17.7311 58.2096 19.3031 57.5126 20.6591C56.8156 22.0076 55.8232 23.0606 54.5353 23.8182C53.255 24.5682 51.7323 24.9432 49.9672 24.9432ZM49.9899 21.1932C50.7929 21.1932 51.4634 20.9659 52.0013 20.5114C52.5391 20.0493 52.9444 19.4205 53.2172 18.625C53.4975 17.8296 53.6376 16.9243 53.6376 15.9091C53.6376 14.894 53.4975 13.9887 53.2172 13.1932C52.9444 12.3977 52.5391 11.769 52.0013 11.3068C51.4634 10.8447 50.7929 10.6137 49.9899 10.6137C49.1793 10.6137 48.4975 10.8447 47.9444 11.3068C47.399 11.769 46.9861 12.3977 46.7058 13.1932C46.4331 13.9887 46.2967 14.894 46.2967 15.9091C46.2967 16.9243 46.4331 17.8296 46.7058 18.625C46.9861 19.4205 47.399 20.0493 47.9444 20.5114C48.4975 20.9659 49.1793 21.1932 49.9899 21.1932ZM70.3499 7.14775V10.7841H59.8385V7.14775H70.3499ZM62.2249 2.96593H67.0658V19.2387C67.0658 19.6856 67.134 20.0341 67.2703 20.2841C67.4067 20.5265 67.5961 20.697 67.8385 20.7955C68.0885 20.894 68.3764 20.9432 68.7022 20.9432C68.9294 20.9432 69.1567 20.9243 69.384 20.8864C69.6113 20.8409 69.7855 20.8068 69.9067 20.7841L70.6681 24.3864C70.4256 24.4621 70.0847 24.5493 69.6453 24.6477C69.2059 24.7538 68.6719 24.8182 68.0431 24.8409C66.8764 24.8864 65.8537 24.7311 64.9749 24.375C64.1037 24.019 63.4256 23.4659 62.9408 22.7159C62.4559 21.9659 62.2173 21.019 62.2249 19.875V2.96593ZM72.8633 24.6023V7.14775H77.7042V24.6023H72.8633ZM75.2951 4.89775C74.5754 4.89775 73.958 4.65911 73.4428 4.18184C72.9353 3.69699 72.6815 3.11745 72.6815 2.4432C72.6815 1.77654 72.9353 1.20457 73.4428 0.727295C73.958 0.242446 74.5754 2.09808e-05 75.2951 2.09808e-05C76.0148 2.09808e-05 76.6285 0.242446 77.136 0.727295C77.6512 1.20457 77.9088 1.77654 77.9088 2.4432C77.9088 3.11745 77.6512 3.69699 77.136 4.18184C76.6285 4.65911 76.0148 4.89775 75.2951 4.89775ZM90.3284 7.14775V10.7841H79.5557V7.14775H90.3284ZM82.0216 24.6023V5.88638C82.0216 4.62123 82.2678 3.57199 82.7602 2.73866C83.2602 1.90532 83.942 1.28032 84.8057 0.863657C85.6693 0.44699 86.6504 0.238657 87.7489 0.238657C88.4913 0.238657 89.1693 0.295476 89.783 0.409113C90.4042 0.522749 90.8663 0.625022 91.1693 0.715931L90.3057 4.35229C90.1163 4.29169 89.8814 4.23487 89.6011 4.18184C89.3284 4.12881 89.0481 4.10229 88.7602 4.10229C88.0481 4.10229 87.5519 4.26896 87.2716 4.60229C86.9913 4.92805 86.8511 5.38639 86.8511 5.97729V24.6023H82.0216ZM95.6344 31.1477C95.0208 31.1477 94.445 31.0985 93.9072 31C93.3769 30.9091 92.9375 30.7917 92.589 30.6477L93.6799 27.0341C94.2481 27.2084 94.7594 27.3031 95.214 27.3182C95.6761 27.3334 96.0738 27.2273 96.4072 27C96.7481 26.7727 97.0246 26.3864 97.2367 25.8409L97.5208 25.1023L91.2594 7.14775H96.3503L99.964 19.9659H100.146L103.794 7.14775H108.919L102.134 26.4887C101.809 27.4281 101.365 28.2462 100.805 28.9432C100.252 29.6477 99.5511 30.1894 98.7026 30.5682C97.8541 30.9546 96.8314 31.1477 95.6344 31.1477Z" fill="#0165B3"/>
</svg>
