<svg width="29" height="33" viewBox="0 0 29 33" fill="none" xmlns="http://www.w3.org/2000/svg">
<path d="M27.6902 32.0384H3.96716V0.407715H20.8325V7.50506H27.6902V32.0384Z" fill="#FCFCFC" stroke="#818181" stroke-width="0.815224" stroke-miterlimit="10"/>
<path d="M27.6559 7.61967L20.7982 0.527221L21.1813 0.0380859L28.0757 7.10934L27.6559 7.61967Z" fill="#818181"/>
<path d="M14.4785 8.35059H1.63057C0.730099 8.35059 0.00012207 9.08056 0.00012207 9.98103V22.829C0.00012207 23.7294 0.730099 24.4594 1.63057 24.4594H14.4785C15.379 24.4594 16.109 23.7294 16.109 22.829V9.98103C16.109 9.08056 15.379 8.35059 14.4785 8.35059Z" fill="#107C42"/>
<path d="M12.3043 21.708H10.1578L3.80396 11.1035H5.99365L12.3043 21.708Z" fill="white"/>
<path d="M3.80396 21.708H5.95044L12.3043 11.1035H10.1146L3.80396 21.708Z" fill="white"/>
<path d="M20.8315 12.4697H16.951V14.1907H20.8315V12.4697Z" fill="#21A365"/>
<path d="M25.6273 12.4697H21.7468V14.1907H25.6273V12.4697Z" fill="#33C481"/>
<path d="M20.8315 15.0693H16.951V16.7903H20.8315V15.0693Z" fill="#107C42"/>
<path d="M25.6273 15.0693H21.7468V16.7903H25.6273V15.0693Z" fill="#21A365"/>
<path d="M20.8315 17.668H16.951V19.3889H20.8315V17.668Z" fill="#195D38"/>
<path d="M25.6273 17.668H21.7468V19.3889H25.6273V17.668Z" fill="#104B2B"/>
</svg>
