<svg width="14" height="14" viewBox="0 0 14 14" fill="none" xmlns="http://www.w3.org/2000/svg">
<path d="M9.87077 9.44C9.7905 9.44 9.62997 9.44 9.5497 9.36C9.38916 9.2 9.38916 8.96 9.5497 8.8L11.6367 6.72L9.5497 4.64C9.38916 4.48 9.38916 4.24 9.5497 4.08C9.71023 3.92 9.95104 3.92 10.1116 4.08L12.5196 6.48C12.6801 6.64 12.6801 6.88 12.5196 7.04L10.1116 9.44C10.1116 9.44 9.95104 9.44 9.87077 9.44Z" fill="#5A5D60" stroke="#5A5D60" stroke-width="1.28"/>
<path d="M11.8775 7.04H5.45605C5.21525 7.04 5.05471 6.88 5.05471 6.64C5.05471 6.4 5.21525 6.24 5.45605 6.24H11.8775C12.1183 6.24 12.2788 6.4 12.2788 6.64C12.2788 6.88 12.1183 7.04 11.8775 7.04Z" fill="#5A5D60" stroke="#5A5D60" stroke-width="1.28"/>
<path d="M7.46274 12.64H2.64669C1.52294 12.64 0.639999 11.76 0.639999 10.64V2.64C0.639999 1.52 1.52294 0.639999 2.64669 0.639999H7.46274C7.70355 0.639999 7.86408 0.799999 7.86408 1.04C7.86408 1.28 7.70355 1.44 7.46274 1.44H2.64669C2.00455 1.44 1.44268 2 1.44268 2.64V10.64C1.44268 11.28 2.00455 11.84 2.64669 11.84H7.46274C7.70355 11.84 7.86408 12 7.86408 12.24C7.86408 12.48 7.70355 12.64 7.46274 12.64Z" fill="#5A5D60" stroke="#5A5D60" stroke-width="1.28"/>
</svg>
